<?xml version="1.0" encoding="UTF-8"?>
<svg version="1.1" viewBox="0 0 2048 1696" width="2188" height="1812" xmlns="http://www.w3.org/2000/svg">
<path transform="translate(998,653)" d="m0 0h52l20 2 11 3 6 4 5 6 4 11 2 11v10l-2 16 1 8 7 3 47 2 118 9 44 5 45 6 26 5 13 4 9 6 6 12 2 12v15l-3 17-5 12-7 10-8 7-14 8-11 4-21 4h-18l-22-3-23-5-7 1-5 6-1 3v22l1 27 4 27 1 6v10l-4 6-5 6-10 5-12 2-15 1h-16l-17-3-18-6-8-5-4-7v-16l7-35 3-21v-12l-4-10-4-6-12-6-16-4-7-1h-21l-12 2-5 2-2 4v47l4 49-1 13-4 10-6 9-10 6-9 3-6 1h-74l-13-3-9-5-5-5-5-8-3-8-1-13 4-49v-47l-2-4-9-3-8-1h-21l-20 4-12 5-5 4-5 10-1 4v12l5 32 5 24v16l-4 7-10 6-20 6-13 2h-16l-23-2-11-4-6-5-6-9v-10l4-24 1-9 1-27v-22l-3-6-5-4-11 1-17 4-22 3h-18l-25-5-16-8-11-8-6-7-7-14-3-12-1-8v-15l3-15 6-10 10-6 25-6 42-6 50-6 49-4 78-6 47-2 7-3 1-8-2-16v-10l3-15 5-10 7-6 8-3 12-2zm8 4-23 2-12 3-6 4-5 10-3 13-1 7v16l1 13-3 4-12 3-32 1-85 6-48 3-61 6-30 4-28 7-9 6-4 6-3 10-1 8v15l3 16 5 13 6 9 10 9 14 6 18 4 9 1h11l24-4 25-5 9 1 5 2 2 5 2 6 1 8v23l-2 40-2 15 1 8 5 7 9 5 9 2 16 1 14-1 20-5 12-5 5-4 2-4v-17l-7-36-2-13v-18l6-12 9-7 14-6 19-5 14-1 20 2 9 3 5 9 1 5v41l-3 45v11l2 9 4 8 5 6 10 5 8 2 13 1h46l18-2 10-4 6-5 5-9 2-5 1-6v-11l-3-45v-41l3-9 3-5 9-3 20-2 14 1 19 5 16 7 7 6 6 12v18l-5 29-4 20v17l4 6 12 6 18 5 17 2h9l14-2 8-3 7-5 4-8-1-13-1-7-2-40v-23l2-12 3-5v-2l9-3 12 1 28 6 14 2h11l20-3 15-5 8-5 10-9 7-14 4-15 1-9v-13l-2-12-4-9-4-5-7-4-28-7-30-4-61-6-90-6-43-3-32-1-12-3-3-4 1-13v-16l-3-17-4-10-5-5-5-3-19-3-14-1z" fill="#3F3F3F"/>
<path transform="translate(998,653)" d="m0 0h52l20 2 11 3 6 4 5 6 4 11 2 11v10l-2 16 1 8 7 3 47 2 118 9 44 5 45 6-2 3-52-6-47-4-63-4-56-4-32-1-12-3-4-5 1-13v-16l-3-17-4-10-5-5-8-3-15-2-14-1h-36l-23 2-12 3-5 3-5 10-3 13-1 7v16l1 13-4 5-12 3-32 1-85 6-48 3-61 6-31 4 1-3 19-3 55-7 31-3 106-8 47-2 7-3 1-8-2-16v-10l3-15 5-10 7-6 8-3 12-2z" fill="#404040"/>
<path transform="translate(1009,504)" d="m0 0h30l15 4 9 5 10 9 8 11 5 11 2 9 1 12-2 15-5 12-9 10-10 5-14 3h-50l-14-3-10-5-7-7-6-12-2-7-1-13 2-15 5-13 7-11 9-9 10-6 12-4zm10 4-14 2-14 6-11 9-7 11-5 13-1 5v20l4 13 6 9 9 7 13 4 8 1h34l16-3 8-4 8-7 6-12 2-8v-20l-4-14-6-11-5-6-11-8-12-5-14-2z" fill="#3D3D3D"/>
<path transform="translate(1335,747)" d="m0 0 16 1 7 1-2 3-24-3z" fill="#5E5E5E"/>
<path transform="translate(705,747)" d="m0 0 2 1v2l-22 3 1-3z" fill="#5A5A5A"/>
</svg>
