<?xml version="1.0" encoding="UTF-8"?>
<svg version="1.1" viewBox="0 0 2048 1597" width="928" height="724" xmlns="http://www.w3.org/2000/svg">
<path transform="translate(990,465)" d="m0 0h116l36 3 21 3 15 4 14 7 10 9 7 11 6 14 4 16 3 21v24l-5 42 1 9 3 6 8 4 10 2 47 2 56 2 57 4 130 10 77 6 79 8 63 8 90 12 41 7 25 6 23 7 11 6 10 9 7 10 5 10 5 19 2 16v37l-4 26-5 19-5 13-9 17-8 11-9 10-11 9-13 9-23 12-21 8-28 6-26 4-12 1h-21l-26-2-43-7-23-5-15-4-6-1h-15l-9 6-7 11-3 8v43l2 61 3 33 6 37 4 23 1 13-3 9-9 12-11 12-8 6-8 4-13 4-24 3-45 3h-21l-24-3-30-7-24-8-17-8-11-8-6-8-4-9v-30l4-25 9-41 6-38 6-41v-16l-3-14-7-16-7-10-8-7-16-8-22-7-26-6-16-2h-45l-24 3-13 4-6 4-5 9-1 6v66l1 35 3 40 3 32 4 56-2 20-6 18-7 13-8 11-10 9-14 8-21 7-15 3-9 1h-161l-20-3-24-8-12-7-10-8-9-12-9-17-5-16-1-7v-28l4-52 3-28 2-29 1-23v-85l-5-10-4-4-12-4-18-3-11-1h-45l-25 4-24 6-21 8-10 6-8 7-8 14-5 12-2 8-1 16 4 30 7 47 7 34 6 28 2 24v12l-2 9-6 10-9 8-17 9-20 7-25 7-20 4-19 2h-22l-43-3-24-3-15-5-10-6-6-5-7-8-10-13-3-7v-13l6-36 5-33 2-24 2-56 1-43-2-12-5-10-7-8-7-3h-14l-18 4-26 6-36 6-18 2-15 1h-21l-21-2-37-7-14-4-19-8-19-10-14-10-12-11-10-11-11-18-8-20-5-19-3-19-1-9v-32l2-16 5-19 4-10 8-12 7-7 14-8 23-7 30-7 42-7 130-17 65-7 56-5 169-13 53-4 39-2 64-2 17-1 13-3 6-4 3-8v-10l-5-42v-17l3-23 4-15 5-13 6-11 7-8 10-7 12-5 25-5 29-3z" fill="#2D2D2D"/>
<path transform="translate(1023,113)" d="m0 0h50l20 3 22 6 21 10 12 9 18 18 10 13 9 16 7 16 5 18 3 19v29l-4 22-5 15-9 17-9 11-9 8-15 9-13 5-22 5-19 2-77 1-29-2-22-4-15-5-15-8-9-7-10-10-7-11-7-14-5-18-3-19v-24l4-24 5-17 7-16 10-16 8-10 11-12 7-7 14-10 17-8 17-5 18-4z" fill="#2D2D2D"/>
<path transform="translate(1631,1201)" d="m0 0" fill="#FEFEFE"/>
<path transform="translate(1628,1205)" d="m0 0" fill="#FEFEFE"/>
<path transform="translate(1629,1204)" d="m0 0" fill="#FEFEFE"/>
<path transform="translate(1630,1203)" d="m0 0" fill="#FEFEFE"/>
<path transform="translate(1632,1200)" d="m0 0" fill="#FEFEFE"/>
<path transform="translate(1633,1199)" d="m0 0" fill="#FEFEFE"/>
<path transform="translate(1634,1198)" d="m0 0" fill="#FEFEFE"/>
<path transform="translate(1635,1196)" d="m0 0" fill="#FEFEFE"/>
<path transform="translate(1636,1195)" d="m0 0" fill="#FEFEFE"/>
</svg>
